<svg xmlns="http://www.w3.org/2000/svg" width="3.16" height="8.97" viewBox="0 0 3.16 8.97">
  <metadata><?xpacket begin="﻿" id="W5M0MpCehiHzreSzNTczkc9d"?>
<x:xmpmeta xmlns:x="adobe:ns:meta/" x:xmptk="Adobe XMP Core 5.6-c140 79.160451, 2017/05/06-01:08:21        ">
   <rdf:RDF xmlns:rdf="http://www.w3.org/1999/02/22-rdf-syntax-ns#">
      <rdf:Description rdf:about=""/>
   </rdf:RDF>
</x:xmpmeta>
                                                                                                    
                                                                                                    
                                                                                                    
                                                                                                    
                                                                                                    
                                                                                                    
                                                                                                    
                                                                                                    
                                                                                                    
                                                                                                    
                                                                                                    
                                                                                                    
                                                                                                    
                                                                                                    
                                                                                                    
                                                                                                    
                                                                                                    
                                                                                                    
                                                                                                    
                                                                                                    
                           
<?xpacket end="w"?></metadata>
<defs>
    <style>
      .cls-1 {
        fill: #fff;
        fill-rule: evenodd;
      }
    </style>
  </defs>
  <path id="i" class="cls-1" d="M1457.17,5916.98l-0.82,3.72c-0.04.19-.07,0.35-0.09,0.51a2.316,2.316,0,0,0-.04.46,0.508,0.508,0,0,0,.18.38,0.846,0.846,0,0,0,.63.18,2.477,2.477,0,0,0,.45-0.05,4.15,4.15,0,0,0,.48-0.11,3.383,3.383,0,0,0,.44-0.18,2.557,2.557,0,0,0,.37-0.2v-0.42h-0.84l1.08-5.15-0.22-.14a4.239,4.239,0,0,0-.58.04c-0.22.03-.44,0.06-0.67,0.1a5.821,5.821,0,0,0-.63.14,3.492,3.492,0,0,0-.48.15v0.4Zm0.53-2.25a1.044,1.044,0,0,0,.69.23,1.1,1.1,0,0,0,.73-0.23,0.858,0.858,0,0,0,0-1.25,1.1,1.1,0,0,0-.73-0.23,1.044,1.044,0,0,0-.69.23A0.838,0.838,0,0,0,1457.7,5914.73Z" transform="translate(-1456.22 -5913.25)"/>
</svg>
